<?xml version="1.0" encoding="utf-8"?>
<!-- Generator: Adobe Illustrator 25.2.0, SVG Export Plug-In . SVG Version: 6.00 Build 0)  -->
<svg version="1.1" id="Layer_1" xmlns="http://www.w3.org/2000/svg" xmlns:xlink="http://www.w3.org/1999/xlink" x="0px" y="0px"
	 viewBox="0 0 1920 1080" style="enable-background:new 0 0 1920 1080;" xml:space="preserve">
<style type="text/css">
	.st0{fill:#04AA6D;}
	.st1{fill:#F0F0F0;}
	.st2{fill:#FFFFFF;}
	.st3{fill:#E4E4E4;}
	.st4{fill:#CACACA;}
	.st5{fill:#E6E6E6;}
	.st6{fill:#FFB6B6;}
	.st7{fill:#3F3D56;}
	.st8{fill:#2F2E41;}
	.st9{opacity:0.2;enable-background:new    ;}
</style>
<path class="st0" d="M1920,399.29c0,0-273.5-121.79-421.5,76.21c-103,145-103,191-250,201s-205-28-315,67c-47,47-76,133-204,138
	s-207-60-266-77S210.5,699.75,0,946.13V1080h1924.28L1920,399.29z"/>
<g>
	<path class="st1" d="M1345.37,775.06c-3.8-30.54-22.72-60.63-51.85-70.57c11.49,31.43,11.48,65.92-0.01,97.35
		c-4.48,12.11-10.71,25.1-6.5,37.31c2.62,7.59,9.03,13.4,16.19,17.03c7.16,3.63,15.11,5.36,22.96,7.06l1.54,1.28
		C1340.17,836.38,1349.17,805.6,1345.37,775.06z"/>
	<path class="st2" d="M1293.23,705.07c16.96,19,27.5,42.87,30.13,68.21c0.66,5.44,0.46,10.96-0.59,16.34
		c-1.2,5.21-3.77,10-7.44,13.88c-3.36,3.69-7.21,7.07-9.62,11.51c-2.42,4.63-2.74,10.08-0.9,14.96c2.12,6.08,6.3,11.04,10.55,15.74
		c4.72,5.22,9.71,10.57,11.72,17.5c0.24,0.84,1.53,0.41,1.29-0.43c-3.49-12.05-15.19-18.89-20.77-29.74
		c-2.6-5.06-3.69-10.94-1.26-16.29c2.13-4.67,6.11-8.17,9.54-11.87c3.64-3.73,6.32-8.3,7.79-13.3c1.33-5.31,1.74-10.81,1.22-16.26
		c-0.97-12.29-3.87-24.34-8.59-35.73c-5.31-13.03-12.81-25.05-22.18-35.54C1293.55,703.4,1292.66,704.42,1293.23,705.07
		L1293.23,705.07z"/>
	<path class="st2" d="M1323,765.07c8.66-2.1,14.52-10.16,13.84-19.05c-0.07-0.87-1.42-0.8-1.35,0.07
		c0.64,8.27-4.84,15.78-12.91,17.69C1321.72,763.98,1322.15,765.27,1323,765.07z"/>
	<path class="st2" d="M1317.27,801.86c-7.57-4.52-13.16-11.73-15.65-20.18c-0.25-0.84-1.53-0.41-1.29,0.43
		c2.61,8.8,8.44,16.28,16.33,20.97C1317.41,803.51,1318.02,802.3,1317.27,801.86L1317.27,801.86z"/>
	<path class="st2" d="M1309.74,727.85c-3.13,1.49-6.79,1.3-9.75-0.5c-0.75-0.46-1.35,0.76-0.61,1.21c3.28,1.97,7.32,2.18,10.79,0.57
		c0.35-0.13,0.54-0.5,0.43-0.86C1310.48,727.93,1310.09,727.74,1309.74,727.85L1309.74,727.85z"/>
	<path class="st1" d="M1204.74,758.99c0.46,0.3,0.92,0.6,1.37,0.9c6.13,4.03,11.93,8.56,17.33,13.53c0.42,0.38,0.85,0.77,1.26,1.16
		c12.88,12.12,23.41,26.52,31.03,42.48c3.03,6.35,5.57,12.93,7.6,19.67c2.8,9.31,5.11,19.62,10.66,27.23
		c0.57,0.8,1.19,1.57,1.85,2.29h50.17c0.11-0.06,0.23-0.1,0.34-0.16l2,0.09c-0.08-0.35-0.17-0.72-0.25-1.08
		c-0.05-0.21-0.1-0.41-0.15-0.62c-0.03-0.14-0.07-0.27-0.09-0.4c-0.01-0.05-0.02-0.09-0.03-0.13c-0.02-0.13-0.06-0.24-0.08-0.35
		c-0.5-2.05-1.02-4.1-1.56-6.15c0-0.01,0-0.01-0.01-0.02c-4.11-15.6-9.56-31-17.17-45.08c-0.23-0.42-0.46-0.86-0.71-1.28
		c-3.47-6.33-7.44-12.36-11.89-18.04c-2.45-3.1-5.05-6.08-7.8-8.92c-7.11-7.32-15.33-13.48-24.36-18.25
		c-18-9.5-38.83-13.14-58.06-7.34C1205.72,758.68,1205.23,758.83,1204.74,758.99z"/>
	<path class="st2" d="M1204.86,759.68c24.98,4.96,47.77,17.67,65.12,36.32c3.81,3.95,6.97,8.47,9.36,13.41
		c2.18,4.88,3.01,10.26,2.41,15.57c-0.46,4.96-1.5,9.99-0.75,14.98c0.86,5.15,3.88,9.7,8.29,12.49c5.35,3.58,11.67,5.02,17.9,6.21
		c6.92,1.33,14.12,2.59,19.89,6.91c0.7,0.52,1.47-0.59,0.77-1.11c-10.04-7.52-23.5-5.94-34.49-11.24
		c-5.13-2.48-9.54-6.51-10.81-12.25c-1.11-5.02-0.04-10.2,0.47-15.22c0.66-5.17,0.04-10.43-1.79-15.31
		c-2.14-5.04-5.12-9.68-8.81-13.72c-8.17-9.23-17.75-17.11-28.37-23.36c-12.08-7.2-25.31-12.28-39.11-15.03
		C1204.11,758.15,1204.01,759.51,1204.86,759.68z"/>
	<path class="st2" d="M1264.74,789.66c5.65-6.89,5.47-16.86-0.42-23.54c-0.58-0.65-1.62,0.22-1.04,0.87
		c5.5,6.22,5.64,15.51,0.34,21.9C1263.07,789.56,1264.19,790.33,1264.74,789.66z"/>
	<path class="st2" d="M1282.32,822.48c-8.77,0.95-17.57-1.44-24.65-6.69c-0.7-0.52-1.47,0.59-0.77,1.11
		c7.38,5.45,16.54,7.92,25.66,6.91C1283.43,823.72,1283.19,822.39,1282.32,822.48L1282.32,822.48z"/>
	<path class="st2" d="M1231.75,767.93c-1.6,3.07-4.64,5.13-8.09,5.48c-0.87,0.09-0.62,1.42,0.24,1.33c3.8-0.4,7.16-2.67,8.96-6.04
		c0.2-0.31,0.13-0.72-0.17-0.94C1232.39,767.55,1231.97,767.62,1231.75,767.93L1231.75,767.93z"/>
	<path id="a0650842-7e0d-4738-afc6-e49dd139c2fd-726_1_" class="st3" d="M1123.94,238.54L525.56,128.91
		c-1.22-0.23-2.47-0.22-3.68,0.04c-1.1,0.24-2.13,0.72-3.02,1.41c-0.87,0.68-1.57,1.55-2.05,2.55c-0.51,1.08-0.76,2.25-0.75,3.44
		v536.08c-0.01,1.19,0.24,2.37,0.75,3.44c0.47,1,1.17,1.87,2.04,2.55c0.89,0.69,1.92,1.17,3.02,1.41c1.21,0.26,2.47,0.28,3.68,0.05
		l598.38-109.63c0.5-0.1,0.96-0.34,1.33-0.67c0.44-0.39,0.8-0.86,1.08-1.37c0.32-0.59,0.57-1.22,0.73-1.87
		c0.18-0.71,0.27-1.44,0.27-2.17v-319.5c0-0.73-0.09-1.47-0.27-2.18c-0.16-0.65-0.41-1.28-0.73-1.87c-0.28-0.52-0.65-0.98-1.08-1.37
		c-0.38-0.34-0.83-0.57-1.33-0.68L1123.94,238.54z"/>
	<path id="ab230013-2870-4714-bfc2-3c974790ba7e-727_1_" class="st2" d="M1133.09,238.54L534.72,128.91
		c-1.22-0.23-2.47-0.22-3.68,0.04c-1.1,0.24-2.13,0.72-3.02,1.41c-0.87,0.68-1.57,1.55-2.05,2.55c-0.51,1.08-0.76,2.25-0.75,3.44
		v536.08c-0.01,1.19,0.24,2.37,0.75,3.44c0.47,1,1.17,1.87,2.04,2.55c0.89,0.69,1.92,1.17,3.02,1.41c1.21,0.26,2.47,0.28,3.68,0.05
		l598.38-109.63c0.5-0.1,0.96-0.34,1.33-0.67c0.44-0.39,0.8-0.86,1.08-1.37c0.32-0.59,0.57-1.22,0.73-1.87
		c0.18-0.71,0.27-1.44,0.27-2.17v-319.5c0-0.73-0.09-1.47-0.27-2.18c-0.16-0.65-0.41-1.28-0.73-1.87c-0.28-0.52-0.65-0.98-1.08-1.37
		c-0.38-0.34-0.83-0.57-1.33-0.68L1133.09,238.54z"/>
	<path id="efb73e9a-ed9f-4c58-9f24-e2c56f2a395b-728_1_" class="st4" d="M1133.09,238.54L534.72,128.91
		c-1.22-0.23-2.47-0.22-3.68,0.04c-1.1,0.24-2.13,0.72-3.02,1.41c-0.87,0.68-1.57,1.55-2.05,2.55c-0.51,1.08-0.76,2.25-0.75,3.44
		v536.08c-0.01,1.19,0.24,2.37,0.75,3.44c0.47,1,1.17,1.87,2.04,2.55c0.89,0.69,1.92,1.17,3.02,1.41c1.21,0.26,2.47,0.28,3.68,0.05
		l598.38-109.63c0.5-0.1,0.96-0.34,1.33-0.67c0.44-0.39,0.8-0.86,1.08-1.37c0.32-0.59,0.57-1.22,0.73-1.87
		c0.18-0.71,0.27-1.44,0.27-2.17v-319.5c0-0.73-0.09-1.47-0.27-2.18c-0.16-0.65-0.41-1.28-0.73-1.87c-0.28-0.52-0.65-0.98-1.08-1.37
		c-0.38-0.34-0.83-0.57-1.33-0.68L1133.09,238.54z M1135.36,564.58c0,0.49-0.06,0.98-0.18,1.46c-0.11,0.44-0.27,0.86-0.49,1.25
		c-0.19,0.35-0.43,0.66-0.72,0.92c-0.25,0.23-0.56,0.38-0.89,0.45L533.83,677.23c-0.81,0.15-1.65,0.14-2.46-0.03
		c-0.73-0.16-1.42-0.49-2.01-0.95c-0.58-0.45-1.05-1.04-1.36-1.7c-0.34-0.72-0.51-1.5-0.5-2.29V136.53
		c-0.01-0.79,0.16-1.57,0.5-2.29c0.32-0.67,0.78-1.25,1.36-1.7c0.59-0.46,1.28-0.78,2.01-0.95c0.81-0.18,1.64-0.19,2.46-0.04
		l599.25,108.58c0.33,0.07,0.64,0.22,0.89,0.45c0.29,0.26,0.54,0.57,0.72,0.92c0.22,0.39,0.38,0.81,0.49,1.25
		c0.12,0.48,0.18,0.97,0.18,1.46L1135.36,564.58L1135.36,564.58z"/>
	<path id="f96011ca-2547-471d-b877-843add24502e-729_1_" class="st3" d="M428.62,295.99c-0.03-3.66,0.75-7.28,2.27-10.61
		c1.42-3.07,3.53-5.79,6.15-7.93c2.64-2.14,5.72-3.67,9.03-4.48c3.57-0.86,7.29-0.97,10.91-0.33c3.8,0.66,7.44,2.01,10.75,3.99
		c3.27,1.94,6.19,4.41,8.66,7.31c2.45,2.85,4.4,6.1,5.78,9.59c1.38,3.47,2.09,7.16,2.11,10.9c0.03,3.53-0.69,7.02-2.11,10.26
		c-1.33,3-3.3,5.68-5.78,7.84c-2.51,2.17-5.47,3.77-8.66,4.68c-3.49,0.99-7.15,1.23-10.75,0.73l0,0c-3.83-0.53-7.53-1.76-10.9-3.64
		c-3.39-1.88-6.44-4.32-9.03-7.22c-2.59-2.89-4.67-6.2-6.15-9.79C429.41,303.7,428.64,299.87,428.62,295.99z"/>
	<path id="e2afd39c-bfa9-4aab-9b72-f2692ed67225-730_1_" class="st3" d="M428.62,407.03c-0.03-3.66,0.75-7.28,2.27-10.61
		c1.42-3.07,3.53-5.79,6.15-7.93c2.64-2.14,5.72-3.67,9.03-4.48c3.57-0.86,7.29-0.97,10.91-0.33c3.8,0.66,7.44,2.01,10.75,3.99
		c3.27,1.94,6.19,4.41,8.66,7.31c2.45,2.85,4.4,6.1,5.78,9.59c1.38,3.47,2.09,7.16,2.11,10.9c0.03,3.53-0.69,7.02-2.11,10.26
		c-1.33,3-3.3,5.68-5.78,7.84c-2.51,2.17-5.47,3.77-8.66,4.68c-3.49,0.99-7.15,1.23-10.75,0.73l0,0c-3.83-0.53-7.53-1.76-10.9-3.64
		c-3.39-1.88-6.44-4.32-9.03-7.22c-2.59-2.89-4.67-6.2-6.15-9.79C429.41,414.74,428.64,410.91,428.62,407.03z"/>
	<path id="a7f5fcd6-9ca6-43fc-9a19-c5543edb3dc0-731_1_" class="st3" d="M428.62,518.07c-0.03-3.66,0.75-7.28,2.27-10.61
		c1.42-3.07,3.53-5.79,6.15-7.93c2.64-2.14,5.72-3.67,9.03-4.48c3.57-0.86,7.29-0.97,10.91-0.33c3.8,0.66,7.44,2.01,10.75,3.99
		c3.27,1.94,6.19,4.41,8.66,7.31c2.45,2.85,4.4,6.1,5.78,9.59c1.38,3.47,2.09,7.16,2.11,10.9c0.03,3.53-0.69,7.02-2.11,10.26
		c-1.33,3-3.3,5.68-5.78,7.84c-2.51,2.17-5.47,3.77-8.66,4.68c-3.49,0.99-7.15,1.23-10.75,0.73l0,0c-3.83-0.53-7.53-1.76-10.9-3.64
		c-3.39-1.88-6.44-4.32-9.03-7.22c-2.59-2.89-4.67-6.2-6.15-9.79C429.41,525.78,428.64,521.95,428.62,518.07z"/>
	<path id="bf82177c-c5c5-4721-a492-d21e500fa887-732_1_" class="st0" d="M435.49,295.99c-0.03-3.66,0.75-7.28,2.27-10.61
		c1.42-3.07,3.53-5.79,6.15-7.93c2.64-2.14,5.72-3.67,9.03-4.48c3.57-0.86,7.29-0.97,10.91-0.33c3.8,0.66,7.44,2.01,10.75,3.99
		c3.27,1.94,6.19,4.41,8.66,7.31c2.45,2.85,4.4,6.1,5.78,9.59c1.38,3.47,2.09,7.16,2.11,10.9c0.03,3.53-0.69,7.02-2.11,10.26
		c-1.33,3-3.3,5.68-5.78,7.84c-2.51,2.17-5.47,3.77-8.66,4.68c-3.49,0.99-7.15,1.23-10.75,0.73l0,0c-3.83-0.53-7.53-1.76-10.9-3.64
		c-3.39-1.88-6.44-4.32-9.03-7.22c-2.59-2.89-4.67-6.2-6.15-9.79C436.28,303.7,435.51,299.87,435.49,295.99z"/>
	<path id="fe313e0a-2048-439a-a54e-0e20ebfa32da-733_1_" class="st0" d="M435.49,406.27c-0.02-3.71,0.76-7.39,2.27-10.78
		c1.44-3.2,3.53-6.05,6.15-8.38c2.62-2.33,5.69-4.08,9.03-5.15c3.52-1.12,7.23-1.51,10.91-1.13c3.75,0.37,7.4,1.45,10.75,3.19
		c3.26,1.69,6.19,3.95,8.66,6.67c2.45,2.69,4.41,5.79,5.78,9.16c1.39,3.42,2.1,7.07,2.11,10.75c0.02,3.58-0.7,7.13-2.11,10.42
		c-2.73,6.33-7.95,11.25-14.44,13.59c-3.44,1.24-7.1,1.75-10.75,1.52l0,0c-3.78-0.23-7.49-1.2-10.9-2.84
		c-6.82-3.28-12.21-8.93-15.17-15.89C436.27,413.88,435.5,410.1,435.49,406.27z"/>
	<path id="bd4ad8d1-9beb-4dfd-9043-04087d822fa4-734_1_" class="st0" d="M435.49,516.56c-0.01-7.47,3.03-14.61,8.42-19.78
		c11.15-10.68,28.84-10.29,39.52,0.86c2.38,2.48,4.28,5.38,5.6,8.55c5.81,14.09-0.89,30.22-14.98,36.04
		c-3.24,1.34-6.7,2.04-10.2,2.09l0,0c-11.28,0.17-21.56-6.46-26.08-16.8C436.26,524.05,435.49,520.33,435.49,516.56z"/>
	<path id="a8cdce74-e5d0-4904-9e42-fa7998d61cd8-735_1_" class="st2" d="M452.43,295.47l8.68,1.33v-7.86c0,0,0.06-0.71,0.2-1.03
		c0.13-0.3,0.34-0.56,0.59-0.78c0.25-0.21,0.55-0.36,0.87-0.45c0.35-0.09,0.71-0.1,1.07-0.05c0.38,0.06,0.74,0.19,1.07,0.38
		c0.33,0.19,0.62,0.43,0.87,0.72c0.25,0.28,0.45,0.61,0.59,0.96c0.14,0.35-0.68,1.09-0.68,1.09v8.18l9.05,1.25
		c0.37,0.06,0.73,0.19,1.05,0.37c0.65,0.38,1.15,0.96,1.44,1.66c0.14,0.34,0.21,0.71,0.21,1.08c0,0.35-0.07,0.7-0.21,1.02
		c-0.13,0.3-0.33,0.56-0.57,0.77c-0.25,0.21-0.54,0.37-0.86,0.45c-0.34,0.09-0.7,0.11-1.05,0.05l-7.91-1.22v8.46
		c0,0.37-0.07,0.74-0.22,1.08c-0.14,0.31-0.35,0.59-0.61,0.82c-0.26,0.22-0.57,0.39-0.91,0.48c-0.36,0.1-0.74,0.12-1.11,0.06
		c-0.39-0.06-0.77-0.19-1.12-0.38c-0.34-0.19-0.65-0.44-0.91-0.74c-0.26-0.29-0.47-0.63-0.62-0.99c-0.15-0.36-0.22-0.75-0.22-1.14
		v-8.56l-8.68-1.3c-0.4-0.06-0.78-0.2-1.13-0.4c-0.35-0.2-0.66-0.45-0.93-0.75c-0.26-0.3-0.47-0.63-0.62-1
		c-0.15-0.37-0.23-0.76-0.23-1.16c0-0.37,0.08-0.74,0.23-1.08c0.14-0.32,0.36-0.6,0.62-0.82c0.27-0.23,0.59-0.39,0.93-0.48
		C451.67,295.42,452.05,295.41,452.43,295.47z"/>
	<path id="b7a04d04-cd1f-49a6-9e27-762621fbfe12-736_1_" class="st2" d="M458.62,415.84l23.08,1.67h0.08l-10.83-19.66
		c-0.07-0.12-0.16-0.23-0.28-0.31c-0.06-0.04-0.12-0.07-0.18-0.09c-0.07-0.02-0.13-0.04-0.2-0.04c-0.07-0.01-0.14,0-0.2,0.01
		c-0.06,0.01-0.13,0.03-0.18,0.06c-0.12,0.06-0.21,0.15-0.28,0.26l-7.37,12.11l-0.35,0.58L458.62,415.84z"/>
	<path id="aee7be29-824b-4068-b60b-6c8751f56236-737_1_" class="st2" d="M445.44,414.85l20.37,1.48l-3.9-5.93l-0.28-0.43l-5.12-7.77
		c-0.09-0.12-0.2-0.22-0.33-0.3c-0.06-0.04-0.13-0.07-0.2-0.09c-0.07-0.03-0.14-0.04-0.22-0.05c-0.07-0.01-0.15-0.01-0.22-0.01
		c-0.07,0-0.14,0.02-0.21,0.04c-0.07,0.02-0.13,0.05-0.19,0.08c-0.06,0.03-0.12,0.07-0.17,0.12l-0.02,0.02l-0.02,0.02l-0.02,0.02
		l-0.02,0.02L445.44,414.85z"/>
	<path id="ba3c0334-c882-4ee2-a1c6-8432d6f0f237-738_1_" class="st2" d="M460.84,394.59c0.47,0.04,0.93,0.17,1.35,0.38
		c0.41,0.21,0.78,0.49,1.1,0.83c0.31,0.34,0.56,0.73,0.74,1.15c0.18,0.43,0.27,0.89,0.27,1.36c0,0.45-0.09,0.9-0.27,1.31
		c-0.17,0.39-0.42,0.74-0.74,1.03c-0.32,0.29-0.69,0.51-1.1,0.64c-0.43,0.14-0.89,0.2-1.35,0.16c-0.47-0.04-0.93-0.17-1.35-0.38
		c-0.41-0.21-0.79-0.49-1.1-0.83c-0.32-0.34-0.57-0.73-0.75-1.16c-0.18-0.43-0.27-0.9-0.27-1.36c0-0.45,0.09-0.9,0.27-1.32
		c0.17-0.39,0.43-0.74,0.75-1.03c0.32-0.29,0.7-0.5,1.1-0.64C459.93,394.6,460.39,394.55,460.84,394.59z"/>
	<path id="a6488acd-751d-43fe-95e8-3811e87b97c8-739_1_" class="st5" d="M709.95,472.94l228.58-216.88l0.98,1.72l-228.13,217
		L709.95,472.94z"/>
	<path id="f4872601-d834-4ac9-b8ed-95180004a4aa-740_1_" class="st5" d="M709.99,227.12l1.43-1.72l228.07,236.76l-0.98,1.63
		L709.99,227.12z"/>
	<path id="fd144007-5a21-49cb-9314-d281c54acffb-741_1_" class="st5" d="M936.48,252.76L713.99,222.2
		c-1.03-0.15-2.08-0.06-3.07,0.26c-0.94,0.31-1.8,0.83-2.51,1.52c-0.74,0.71-1.32,1.57-1.7,2.52c-0.42,1.05-0.63,2.17-0.63,3.3
		v239.5c0,1.15,0.21,2.28,0.63,3.35c0.39,0.99,0.97,1.9,1.7,2.67c0.71,0.74,1.57,1.33,2.51,1.72c0.97,0.4,2.02,0.57,3.07,0.51
		l222.49-12.25c0.75-0.05,1.48-0.29,2.11-0.69c0.67-0.43,1.26-0.98,1.72-1.63c0.51-0.71,0.9-1.5,1.16-2.33
		c0.28-0.91,0.43-1.85,0.43-2.8V260.66c0-0.96-0.14-1.92-0.43-2.84c-0.26-0.86-0.65-1.68-1.16-2.43c-0.46-0.69-1.04-1.29-1.72-1.77
		C937.97,253.17,937.24,252.88,936.48,252.76z M713.99,474.67c-0.75,0.04-1.49-0.09-2.18-0.37c-0.67-0.28-1.28-0.7-1.79-1.23
		c-0.52-0.55-0.93-1.2-1.21-1.9c-0.3-0.76-0.45-1.57-0.45-2.38V230.49c0-0.8,0.15-1.6,0.45-2.34c0.27-0.68,0.68-1.29,1.21-1.8
		c0.51-0.49,1.12-0.86,1.79-1.08c0.7-0.23,1.45-0.29,2.18-0.19l221.75,30.05c0.54,0.08,1.06,0.29,1.51,0.61
		c0.48,0.34,0.9,0.77,1.23,1.26c0.36,0.53,0.64,1.12,0.83,1.73c0.2,0.66,0.3,1.34,0.3,2.02v196.81c0,0.68-0.1,1.35-0.3,2
		c-0.18,0.6-0.46,1.16-0.83,1.66c-0.33,0.46-0.75,0.86-1.23,1.16c-0.45,0.28-0.97,0.45-1.51,0.48L713.99,474.67z"/>
	<g id="b5e30cc8-5ae1-449e-85b5-4004b80a7a56_1_">
		<path id="a649d73e-ec59-4c3e-8cce-1f940f947e89-742_1_" class="st5" d="M706.67,502.29c-0.59,0.06-1.15,0.28-1.63,0.63
			c-0.53,0.39-0.98,0.87-1.33,1.43c-0.39,0.62-0.69,1.3-0.88,2.01c-0.21,0.78-0.32,1.58-0.31,2.38c0,0.77,0.12,1.54,0.34,2.27
			c0.19,0.65,0.5,1.26,0.89,1.81c0.35,0.48,0.79,0.88,1.31,1.17c0.49,0.27,1.05,0.39,1.6,0.36l388.99-32.21
			c0.31-0.03,0.6-0.16,0.82-0.38c0.28-0.27,0.51-0.59,0.68-0.95c0.21-0.44,0.36-0.9,0.46-1.37c0.12-0.55,0.18-1.11,0.18-1.67
			c0.01-0.56-0.04-1.11-0.15-1.65c-0.09-0.46-0.24-0.91-0.44-1.34c-0.15-0.34-0.38-0.64-0.66-0.89c-0.22-0.2-0.52-0.31-0.82-0.3
			h-0.07L706.67,502.29z"/>
	</g>
	<g id="a3d56c43-6c72-48a5-a1aa-00d4337a9f01_1_">
		<path id="fcd1be7c-dd66-4ef0-bebb-a6cb75017f49-743_1_" class="st5" d="M706.67,539.33c-0.59,0.08-1.16,0.32-1.63,0.68
			c-0.53,0.4-0.98,0.9-1.33,1.46c-0.39,0.63-0.69,1.32-0.88,2.04c-0.21,0.78-0.32,1.59-0.31,2.4c0,0.77,0.12,1.53,0.34,2.27
			c0.19,0.64,0.5,1.25,0.89,1.78c0.35,0.47,0.79,0.86,1.31,1.13c0.49,0.26,1.05,0.37,1.6,0.32l388.99-42.91
			c0.31-0.04,0.6-0.18,0.82-0.4c0.28-0.28,0.51-0.61,0.68-0.97c0.21-0.44,0.36-0.91,0.46-1.39c0.12-0.55,0.18-1.11,0.18-1.67
			c0.01-0.55-0.04-1.11-0.15-1.65c-0.09-0.46-0.24-0.9-0.44-1.33c-0.16-0.33-0.38-0.63-0.66-0.87c-0.23-0.19-0.52-0.29-0.82-0.28
			h-0.07L706.67,539.33z"/>
	</g>
	<g id="b86b841b-6efa-4245-8922-ec58e5370162_1_">
		<path id="f8e452a4-70d1-4eed-9ead-ca836e74dca4-744_1_" class="st5" d="M706.67,575.04c-0.6,0.1-1.16,0.35-1.63,0.72
			c-0.53,0.42-0.98,0.92-1.33,1.5c-0.39,0.64-0.69,1.33-0.88,2.06c-0.21,0.78-0.32,1.59-0.31,2.41c0,0.76,0.12,1.52,0.34,2.26
			c0.19,0.63,0.49,1.23,0.89,1.76c0.35,0.46,0.79,0.84,1.31,1.1c0.5,0.24,1.05,0.34,1.6,0.27l388.99-53.44
			c0.31-0.04,0.6-0.19,0.82-0.42c0.28-0.29,0.51-0.62,0.68-0.99c0.21-0.45,0.36-0.92,0.46-1.4c0.12-0.55,0.18-1.11,0.18-1.68
			c0.01-0.55-0.04-1.1-0.15-1.65c-0.09-0.46-0.24-0.9-0.44-1.31c-0.15-0.33-0.38-0.62-0.66-0.85c-0.23-0.19-0.52-0.28-0.82-0.26
			h-0.07L706.67,575.04z"/>
	</g>
	<path id="fb3cf623-4c27-484d-8f36-79433da26778-745_1_" class="st2" d="M474.61,504.51l-21.66-0.27c-0.37-0.01-0.74,0.04-1.1,0.16
		c-0.34,0.11-0.66,0.28-0.95,0.5c-0.28,0.22-0.53,0.49-0.72,0.79c-0.2,0.31-0.33,0.65-0.41,1.01c-0.07,0.43-0.05,0.87,0.07,1.29
		c0.06,0.21,0.14,0.41,0.24,0.61c0.21,0.39,0.5,0.73,0.85,1c0.53,0.4,1.18,0.62,1.84,0.63l6.7,0.06c0.65,0,1.23,0.39,1.48,0.98
		c0.08,0.2,0.13,0.41,0.13,0.62v12.69c-0.02,0.71,0.22,1.4,0.65,1.95c0.44,0.55,1.05,0.93,1.73,1.07c1.27,0.22,2.53-0.46,3.07-1.65
		c0.17-0.38,0.27-0.8,0.27-1.22v-12.97c0-0.85,0.67-1.54,1.51-1.54l0.01,0l6.12,0.05c1.41,0.05,2.65-0.96,2.92-2.37
		c0.26-1.59-0.79-3.1-2.35-3.36C474.9,504.53,474.76,504.51,474.61,504.51L474.61,504.51z"/>
	<path id="a62d2508-f0bf-44ee-9014-84ffc49b2c41-746_1_" class="st2" d="M474.94,522.59c1.63,0,2.95,1.32,2.95,2.95
		c0,1.63-1.32,2.95-2.95,2.95c-1.63,0-2.95-1.32-2.95-2.95c0-0.39,0.08-0.78,0.23-1.15C472.68,523.3,473.75,522.59,474.94,522.59z"
		/>
	<path class="st6" d="M995.39,348.98c-0.1,0.8-0.27,1.59-0.5,2.36l46.29,55.42l17.29-2.98l7.91,25.5l-30.09,8.25
		c-4.99,1.37-10.29-0.72-13-5.13l-43.02-69.99c-8.44,0.02-15.3-6.8-15.33-15.24c-0.02-8.44,6.8-15.3,15.24-15.33
		c8.44-0.02,15.3,6.8,15.33,15.24C995.51,347.72,995.47,348.35,995.39,348.98z"/>
	<path class="st7" d="M1043.23,403.68c1-1.62,2.66-2.73,4.54-3.03l32.48-5.18c9.58-3.02,19.8,2.3,22.83,11.88
		c3.01,9.55-2.25,19.73-11.78,22.8l-29.67,14.43c-3.25,1.58-7.18,0.23-8.76-3.03c-0.14-0.29-0.26-0.59-0.36-0.89l-9.95-31.56
		C1041.98,407.27,1042.23,405.3,1043.23,403.68z"/>
	<polygon class="st6" points="1044.92,852.51 1030.97,852.51 1024.34,798.71 1044.93,798.71 	"/>
	<path class="st8" d="M1048.36,866.25l-45.79,0v-0.7c0-9.73,7.89-17.61,17.61-17.61h0.21l27.97,0L1048.36,866.25z"/>
	<polygon class="st6" points="1191.45,852.51 1177.5,852.51 1170.87,798.71 1191.45,798.71 	"/>
	<path class="st8" d="M1194.89,866.25l-45.79,0v-0.7c0-9.73,7.89-17.61,17.61-17.61h0.21l27.97,0L1194.89,866.25z"/>
	<path class="st8" d="M1050.52,522.88l60.81-17.57c22.15,15.71,37.45,47.21,32.5,87.96c-7.98,65.67,38.23,150.11,58.17,235.67
		l-34.47,1.08l-75.47-180.62l-44.25,184.38l-30.79,0.97l20.59-253.87L1050.52,522.88z"/>
	<circle class="st6" cx="1077.6" cy="331.71" r="31.46"/>
	<path class="st7" d="M1045.59,471.6c-6.95-12.21-10.39-27.03-4.34-39.71c1.52-3.19,5.68-6.21,7.85-9l24.31-36.24l27.45-4.42
		c23.75,19.92,3.46,87.98,22.92,132.63l-81.28,43.5C1048.32,536.18,1056.16,490.15,1045.59,471.6z"/>
	<path class="st8" d="M1045.95,319.11c0,0,2.13-3.95,14.88,1.14c4.46,1.78,6.56,1.37,6.85,5.25c1.03,14.59,6.37,28.55,15.34,40.11
		l0.1,0.13l6.38-5.82l8.2,6.54l34.61,0.73c0,0,5.46-26.91-12.75-57.45s-55.56-13.82-55.56-13.82
		C1038.48,297.38,1045.95,319.11,1045.95,319.11z"/>
	<path id="e3bc2865-e5cc-42bd-b905-26cd15d9eaa8-747_1_" class="st0" d="M966.25,278.77l-222.49-30.57
		c-1.03-0.15-2.08-0.06-3.07,0.26c-0.94,0.31-1.8,0.83-2.51,1.52c-0.74,0.71-1.32,1.57-1.7,2.52c-0.42,1.05-0.63,2.17-0.63,3.3
		v239.5c0,1.15,0.21,2.28,0.63,3.35c0.39,0.99,0.97,1.9,1.7,2.67c0.71,0.74,1.57,1.33,2.51,1.72c0.97,0.4,2.02,0.57,3.07,0.51
		l222.49-12.25c0.75-0.05,1.48-0.29,2.11-0.69c0.67-0.43,1.26-0.98,1.72-1.63c0.51-0.71,0.9-1.5,1.16-2.33
		c0.28-0.91,0.43-1.85,0.43-2.8V286.67c0-0.96-0.14-1.92-0.43-2.84c-0.26-0.86-0.65-1.68-1.16-2.43c-0.46-0.69-1.04-1.29-1.72-1.77
		C967.73,279.18,967.01,278.89,966.25,278.77z"/>
	<path id="b68ff6b4-7e21-4c16-926b-abc7c0c87ae6-748_1_" class="st9" d="M966.25,278.77l-222.49-30.57
		c-1.03-0.15-2.08-0.06-3.07,0.26c-0.94,0.31-1.8,0.83-2.51,1.52c-0.74,0.71-1.32,1.57-1.7,2.52c-0.42,1.05-0.63,2.17-0.63,3.3
		v239.5c0,1.15,0.21,2.28,0.63,3.35c0.39,0.99,0.97,1.9,1.7,2.67c0.71,0.74,1.57,1.33,2.51,1.72c0.97,0.4,2.02,0.57,3.07,0.51
		l222.49-12.25c0.75-0.05,1.48-0.29,2.11-0.69c0.67-0.43,1.26-0.98,1.72-1.63c0.51-0.71,0.9-1.5,1.16-2.33
		c0.28-0.91,0.43-1.85,0.43-2.8V286.67c0-0.96-0.14-1.92-0.43-2.84c-0.26-0.86-0.65-1.68-1.16-2.43c-0.46-0.69-1.04-1.29-1.72-1.77
		C967.73,279.18,967.01,278.89,966.25,278.77z"/>
	<path id="b6d259d0-7a66-4dd7-a2f5-b1dbe4f4dee1-749_1_" class="st0" d="M975.4,278.77l-222.49-30.57
		c-1.03-0.15-2.08-0.06-3.07,0.26c-0.94,0.31-1.8,0.83-2.51,1.52c-0.74,0.71-1.32,1.57-1.7,2.52c-0.42,1.05-0.63,2.17-0.63,3.3
		v239.5c0,1.15,0.21,2.28,0.63,3.35c0.39,0.99,0.97,1.9,1.7,2.67c0.71,0.74,1.57,1.33,2.51,1.72c0.97,0.4,2.02,0.57,3.07,0.51
		L975.4,491.3c0.75-0.05,1.48-0.29,2.11-0.69c0.67-0.43,1.26-0.98,1.72-1.63c0.51-0.71,0.9-1.5,1.16-2.33
		c0.28-0.91,0.43-1.85,0.43-2.8V286.67c0-0.96-0.14-1.92-0.43-2.84c-0.26-0.86-0.65-1.68-1.16-2.43c-0.46-0.69-1.04-1.29-1.72-1.77
		C976.89,279.18,976.17,278.89,975.4,278.77z"/>
	<path class="st6" d="M973.83,470.12c0.6,0.53,1.17,1.11,1.68,1.73l71.84-7.34l7.21-15.99l25.56,7.72l-10.01,29.55
		c-1.66,4.9-6.36,8.12-11.53,7.9l-82.08-3.52c-4.7,7.01-14.2,8.88-21.21,4.17s-8.88-14.2-4.17-21.21s14.2-8.88,21.21-4.17
		C972.85,469.32,973.36,469.71,973.83,470.12L973.83,470.12z"/>
	<path class="st7" d="M1045.94,461.08c-0.78-1.74-0.77-3.73,0.03-5.46l13.88-29.81c2.86-9.64,12.98-15.13,22.62-12.28
		c9.6,2.85,15.1,12.91,12.3,22.53l-4.65,32.66c-0.51,3.58-3.83,6.07-7.41,5.56c-0.32-0.05-0.63-0.11-0.94-0.21l-31.72-9.42
		C1048.22,464.13,1046.72,462.82,1045.94,461.08z"/>
	<path class="st4" d="M1383.86,867.39H947.71c-0.63,0-1.14-0.51-1.14-1.14s0.51-1.14,1.14-1.14h436.15c0.63,0,1.14,0.51,1.14,1.14
		S1384.49,867.39,1383.86,867.39z"/>
</g>
</svg>
