<?xml version="1.0" standalone="no"?><svg xmlns="http://www.w3.org/2000/svg" viewBox="0 0 1440 320"><path fill="#04AA6D" fill-opacity="1" d="M0,96L34.3,90.7C68.6,85,137,75,206,112C274.3,149,343,235,411,234.7C480,235,549,149,617,106.7C685.7,64,754,64,823,69.3C891.4,75,960,85,1029,96C1097.1,107,1166,117,1234,138.7C1302.9,160,1371,192,1406,208L1440,224L1440,320L1405.7,320C1371.4,320,1303,320,1234,320C1165.7,320,1097,320,1029,320C960,320,891,320,823,320C754.3,320,686,320,617,320C548.6,320,480,320,411,320C342.9,320,274,320,206,320C137.1,320,69,320,34,320L0,320Z"></path></svg>