<?xml version="1.0" encoding="utf-8"?>
<!-- Generator: Adobe Illustrator 25.2.0, SVG Export Plug-In . SVG Version: 6.00 Build 0)  -->
<svg version="1.1" id="Layer_1" xmlns="http://www.w3.org/2000/svg" xmlns:xlink="http://www.w3.org/1999/xlink" x="0px" y="0px"
	 viewBox="0 0 835.5 645.5" style="enable-background:new 0 0 835.5 645.5;" xml:space="preserve">
<style type="text/css">
	.st0{fill:#FFFFFF;}
	.st1{fill:#04AA6D;}
</style>
<path class="st0" d="M781.3,556c7.6-1.8,12.7-8.9,12.1-16.6c-0.1-0.8-1.2-0.7-1.2,0.1c0.6,7.2-4.2,13.8-11.3,15.5
	C780.2,555.1,780.6,556.2,781.3,556z"/>
<path class="st0" d="M776.3,588.2c-6.6-3.9-11.5-10.2-13.7-17.6c-0.2-0.7-1.3-0.4-1.1,0.4c2.3,7.7,7.4,14.2,14.3,18.3
	C776.4,589.6,776.9,588.6,776.3,588.2L776.3,588.2z"/>
<path class="st0" d="M769.7,523.5c-2.7,1.3-5.9,1.1-8.5-0.4c-0.7-0.4-1.2,0.7-0.5,1.1c2.9,1.7,6.4,1.9,9.4,0.5
	c0.3-0.1,0.5-0.4,0.4-0.7C770.4,523.6,770,523.4,769.7,523.5L769.7,523.5z"/>
<path class="st1" d="M0,645.5c0,0,139.9-222.9,336-204.5s303.3-3.1,330.9-88.9S758.8,104,850.7,97.8c91.9-6.1,79.7,547.6,79.7,547.6
	S697.5,830.1,676,830.1c-21.4,0-594.4,9.2-594.4,9.2l-275.7-98L0,645.5z"/>
</svg>
